<?xml version="1.0" encoding="UTF-8" standalone="no"?>
<svg
   width="31.897903mm"
   height="23.166668mm"
   viewBox="0 0 31.897903 23.166668"
   version="1.1"
   id="svg1"
   xmlns:xlink="http://www.w3.org/1999/xlink"
   xmlns="http://www.w3.org/2000/svg"
   xmlns:svg="http://www.w3.org/2000/svg">
  <defs
     id="defs1">
    <linearGradient
       id="linearGradient7">
      <stop
         style="stop-color:#ff5700;stop-opacity:1;"
         offset="0"
         id="stop10" />
      <stop
         style="stop-color:#8100ff;stop-opacity:1;"
         offset="1"
         id="stop11" />
    </linearGradient>
    <linearGradient
       xlink:href="#linearGradient7"
       id="linearGradient8"
       x1="0.57214111"
       y1="-3.2742188"
       x2="5.4636717"
       y2="24.936979"
       gradientUnits="userSpaceOnUse"
       gradientTransform="translate(-0.3229234,-0.3229167)" />
    <linearGradient
       xlink:href="#linearGradient7"
       id="linearGradient13"
       x1="22.191563"
       y1="-3.96875"
       x2="26.934263"
       y2="26.392187"
       gradientUnits="userSpaceOnUse"
       gradientTransform="translate(2.8623384,-0.3229167)" />
  </defs>
  <rect
     style="fill:#1e1e1e;fill-opacity:1;stroke:none;stroke-width:0;stroke-linecap:round;stroke-linejoin:round;stroke-dasharray:none"
     id="rect14"
     width="6.947619"
     height="1.068815"
     x="17.321241"
     y="17.655811"
     ry="0" />
  <rect
     style="fill:#1e1e1e;fill-opacity:1;stroke:none;stroke-width:0;stroke-linecap:round;stroke-linejoin:round;stroke-dasharray:none"
     id="rect13"
     width="8.0059538"
     height="1.0688162"
     x="17.321241"
     y="15.457601"
     ry="0" />
  <rect
     style="display:inline;fill:#1e1e1e;fill-opacity:1;stroke:none;stroke-width:0;stroke-linecap:round;stroke-linejoin:round;stroke-dasharray:none"
     id="rect12"
     width="9.0642881"
     height="1.0688152"
     x="17.321241"
     y="13.233227"
     ry="0" />
  <path
     style="fill:none;fill-opacity:1;stroke:url(#linearGradient8);stroke-width:2;stroke-linecap:round;stroke-linejoin:round;stroke-dasharray:none"
     d="m 4.9687432,1 -3.96875,10.583333 3.96875,10.583333"
     id="path1" />
  <path
     style="fill:none;stroke:url(#linearGradient13);stroke-width:2;stroke-linecap:round;stroke-linejoin:round;stroke-dasharray:none"
     d="M 26.92916,1.0000009 30.89791,11.583334 26.92916,22.166667"
     id="path1-8" />
  <path
     d="M 7.1696247,5.7006603 V 7.8642318 H 10.107319 V 8.9956407 H 7.1696247 V 11.561159 H 5.9687433 V 4.5692514 H 10.19664 V 5.7006603 Z M 20.458718,11.561159 V 7.3233389 q 0,-0.2530783 0.0049,-0.5210435 0.0049,-0.2679653 0.01489,-0.4912698 0,0 0.01985,-0.5111189 0,0 -0.163756,0.744348 0,0 -0.06947,0.3076638 l -0.06947,0.3076639 -0.06451,0.2778898 -0.05955,0.2233045 -1.032163,3.9003823 H 18.181013 L 17.14885,7.6607767 Q 17.12404,7.5664917 17.09427,7.4374722 L 17.02976,7.1595824 16.95532,6.8519185 16.88585,6.5442547 q 0,0 -0.173681,-0.744348 0.0099,0.2878146 0.02482,0.5657045 0.0099,0.2381914 0.01489,0.5011943 0.0099,0.263003 0.0099,0.4565334 V 11.561159 H 15.694891 V 4.5692514 h 1.607792 l 1.027199,3.910308 q 0.03969,0.1538319 0.08436,0.3771363 l 0.09428,0.4317219 q 0,0 0.104209,0.5061557 0,0 0.109171,-0.4962312 0,0 0.04962,-0.2133797 l 0.04962,-0.2133798 q 0.02482,-0.1042087 0.04962,-0.1984927 l 0.04466,-0.1687189 1.007351,-3.9351196 h 1.602829 v 6.9919076 z m 2.178459,0 V 4.5692514 h 1.200882 v 5.8604996 h 3.076637 v 1.131408 z"
     id="text1"
     style="fill:#1e1e1e;fill-opacity:1;stroke:none;stroke-width:1;stroke-opacity:1" />
  <path
     d="m 11.97051,18.724621 v -0.856303 c 0.12902,-0.307391 0.287814,-0.584042 0.476383,-0.829955 0.188568,-0.24884 0.385407,-0.475724 0.590515,-0.680652 0.20511,-0.207855 0.408565,-0.399608 0.610366,-0.57526 0.201801,-0.178579 0.382099,-0.34984 0.540893,-0.513782 0.162103,-0.166869 0.292777,-0.333739 0.392023,-0.500607 0.102557,-0.16687 0.153832,-0.343986 0.153832,-0.531348 0,-0.275188 -0.06451,-0.478651 -0.19353,-0.61039 -0.125712,-0.131739 -0.312627,-0.197608 -0.560742,-0.197608 -0.244808,0 -0.431723,0.07173 -0.560743,0.215173 -0.125712,0.140521 -0.208417,0.352768 -0.248115,0.636739 l -1.151259,-0.07026 c 0.02647,-0.242985 0.08105,-0.471333 0.163757,-0.685042 0.08601,-0.21371 0.206763,-0.401072 0.362249,-0.562086 0.155486,-0.161015 0.35067,-0.286899 0.585554,-0.377652 0.234883,-0.09368 0.516081,-0.140521 0.843594,-0.140521 0.307664,0 0.580592,0.03952 0.818783,0.118565 0.238191,0.07611 0.438338,0.188825 0.60044,0.338129 0.165411,0.149304 0.289469,0.332276 0.372175,0.548913 0.08601,0.21371 0.12902,0.458159 0.12902,0.733346 0,0.289827 -0.05294,0.551841 -0.158794,0.786043 -0.10586,0.234202 -0.2415,0.45084 -0.406911,0.649913 -0.16541,0.196144 -0.349016,0.380579 -0.550817,0.553303 l -0.585554,0.505 c -0.191877,0.163941 -0.367211,0.329346 -0.526006,0.496216 -0.155485,0.166869 -0.271273,0.345449 -0.347362,0.535739 h 2.664766 v 1.014389 z"
     id="text1-1"
     style="fill:#1e1e1e;fill-opacity:1;stroke:none;stroke-width:1;stroke-opacity:1" />
  <path
     style="fill:#1e1e1e;fill-opacity:1;stroke:none;stroke-width:0;stroke-linecap:butt;stroke-linejoin:miter;stroke-dasharray:none;stroke-opacity:1"
     d="M 15.224177,4.5692518 H 13.99508 L 7.190658,18.724621 h 1.2280528 z"
     id="path5" />
  <path
     style="fill:#1e1e1e;fill-opacity:1;stroke:none;stroke-width:0;stroke-linecap:butt;stroke-linejoin:miter;stroke-dasharray:none;stroke-opacity:1"
     d="m 10.596461,4.5692518 3.491301,6.9919072 h 1.215103 L 11.8157,4.5692518 Z"
     id="path6" />
</svg>
