<?xml version="1.0" encoding="UTF-8" standalone="no"?>
<svg
   width="31.897903mm"
   height="23.166668mm"
   viewBox="0 0 31.897903 23.166668"
   version="1.1"
   id="svg1"
   xmlns:xlink="http://www.w3.org/1999/xlink"
   xmlns="http://www.w3.org/2000/svg"
   xmlns:svg="http://www.w3.org/2000/svg">
  <defs
     id="defs1">
    <linearGradient
       id="linearGradient7">
      <stop
         style="stop-color:#ff5700;stop-opacity:1;"
         offset="0"
         id="stop10" />
      <stop
         style="stop-color:#8100ff;stop-opacity:1;"
         offset="1"
         id="stop11" />
    </linearGradient>
    <linearGradient
       xlink:href="#linearGradient7"
       id="linearGradient8"
       x1="0.57214111"
       y1="-3.2742188"
       x2="5.4636717"
       y2="24.936979"
       gradientUnits="userSpaceOnUse" />
    <linearGradient
       xlink:href="#linearGradient7"
       id="linearGradient13"
       x1="22.191563"
       y1="-3.96875"
       x2="26.934263"
       y2="26.392187"
       gradientUnits="userSpaceOnUse"
       gradientTransform="translate(3.1852618)" />
  </defs>
  <g
     id="layer1"
     transform="translate(-0.3229234,-0.3229167)">
    <path
       style="opacity:1;fill:none;fill-opacity:1;stroke:url(#linearGradient8);stroke-width:2;stroke-linecap:round;stroke-linejoin:round;stroke-dasharray:none"
       d="m 5.2916666,1.3229167 -3.96875,10.5833333 3.96875,10.583333"
       id="path1" />
    <path
       style="fill:none;stroke:url(#linearGradient13);stroke-width:2;stroke-linecap:round;stroke-linejoin:round;stroke-dasharray:none"
       d="m 27.252083,1.3229176 3.96875,10.5833334 -3.96875,10.583333"
       id="path1-8" />
    <path
       style="display:none;fill:#000000;fill-opacity:1;stroke:#000000;stroke-width:0;stroke-linecap:butt;stroke-linejoin:miter;stroke-dasharray:none;stroke-opacity:1"
       d="M 11.705138,10.740608 7.4083331,19.050001 H 6.0022465 l 4.7434495,-8.762838 z"
       id="path4" />
    <g
       id="g13"
       transform="matrix(1.0288578,0,0,1.0288578,-0.78601743,-0.55220427)"
       style="stroke-width:0.971952;fill:#dcdcdc;fill-opacity:1">
      <path
         d="M 8.0463651,6.3913412 V 8.494228 H 10.901661 V 9.5939027 H 8.0463651 V 12.087463 H 6.8791665 V 5.2916665 H 10.988477 V 6.3913412 Z M 20.96272,12.087463 V 7.9685063 q 0,-0.2459799 0.0048,-0.5064291 0.0048,-0.2604493 0.01447,-0.4774904 0,0 0.01929,-0.4967829 0,0 -0.159163,0.7234703 0,0 -0.06752,0.2990343 l -0.06752,0.2990344 -0.0627,0.2700955 -0.05788,0.2170411 -1.003212,3.7909835 H 18.748901 L 17.745689,8.2964795 q -0.02411,-0.09164 -0.05305,-0.2170411 l -0.0627,-0.2700955 -0.07235,-0.2990344 -0.06752,-0.2990343 q 0,0 -0.16881,-0.7234703 0.0096,0.2797419 0.02412,0.5498374 0.0096,0.2315105 0.01447,0.4871366 0.0096,0.2556262 0.0096,0.4437284 V 12.087463 H 16.332511 V 5.2916665 h 1.562696 l 0.998388,3.8006302 q 0.03858,0.1495172 0.08199,0.3665582 l 0.09164,0.4196128 q 0,0 0.101286,0.4919593 0,0 0.106109,-0.4823131 0,0 0.04823,-0.2073948 L 19.37108,9.4733243 Q 19.3952,9.3720385 19.41931,9.280399 l 0.04341,-0.1639866 0.979097,-3.8247459 h 1.557872 v 6.7957965 z m 2.117357,0 V 5.2916665 h 1.167199 v 5.6961225 h 2.990343 v 1.099674 z"
         id="text1" />
      <path
         d="m 11.958818,20.25074 v -0.884745 q 0.176949,-0.476401 0.435567,-0.857522 0.258618,-0.385658 0.539921,-0.703259 0.281304,-0.322138 0.55807,-0.594367 0.276767,-0.276766 0.49455,-0.530847 0.222321,-0.258618 0.358435,-0.517235 0.140652,-0.258618 0.140652,-0.548996 0,-0.426492 -0.176949,-0.630664 -0.172412,-0.204172 -0.512698,-0.204172 -0.33575,0 -0.512699,0.22232 -0.172412,0.217784 -0.226857,0.657888 l -1.05262,-0.07259 q 0.0363,-0.376584 0.149726,-0.707796 0.117966,-0.331212 0.331212,-0.580755 0.213246,-0.249544 0.535384,-0.390196 0.322138,-0.145188 0.771316,-0.145188 0.421956,0 0.748631,0.122503 0.326675,0.117966 0.548995,0.34936 0.226858,0.231395 0.340287,0.567145 0.117966,0.331212 0.117966,0.757704 0,0.449179 -0.145189,0.812151 -0.145189,0.362972 -0.372047,0.671499 -0.226857,0.303989 -0.503624,0.571681 l -0.535384,0.521773 q -0.263155,0.25408 -0.480938,0.512698 -0.213246,0.258618 -0.317601,0.553533 h 2.436452 v 1.048082 z m 4.491782,0 v -1.383832 h 1.075306 v 1.383832 z m 5.526253,-3.198693 q 0,0.916505 -0.140651,1.547169 -0.136115,0.626127 -0.381121,1.016323 -0.240469,0.385658 -0.576219,0.558069 -0.331212,0.167875 -0.725944,0.167875 -0.394733,0 -0.725945,-0.167875 -0.331212,-0.167874 -0.571681,-0.553532 -0.235932,-0.390195 -0.372047,-1.016323 -0.131577,-0.630664 -0.131577,-1.551706 0,-0.966414 0.131577,-1.597078 0.136115,-0.635202 0.376584,-1.011785 0.240469,-0.376584 0.576218,-0.52631 0.340287,-0.154263 0.748631,-0.154263 0.381121,0 0.707796,0.154263 0.331212,0.149726 0.571681,0.52631 0.240469,0.376583 0.376584,1.011785 0.136114,0.630664 0.136114,1.597078 z m -1.048082,0 q 0,-0.676036 -0.04083,-1.11614 -0.04084,-0.444641 -0.131578,-0.703259 -0.09074,-0.263155 -0.235932,-0.367509 -0.140652,-0.104355 -0.344824,-0.104355 -0.217783,0 -0.367509,0.108892 -0.149726,0.104355 -0.240469,0.367509 -0.09074,0.263155 -0.131578,0.707796 -0.0363,0.440104 -0.0363,1.107066 0,0.657887 0.04083,1.097991 0.04083,0.440104 0.12704,0.707796 0.09074,0.263155 0.235932,0.372047 0.145189,0.108891 0.358435,0.108891 0.204172,0 0.349361,-0.108891 0.145189,-0.108892 0.235932,-0.372047 0.09528,-0.267692 0.136114,-0.707796 0.04537,-0.440104 0.04537,-1.097991 z"
         id="text1-1"
         transform="scale(1.0630309,0.94070643)" />
      <path
         style="fill:#dcdcdc;fill-opacity:1;stroke:#000000;stroke-width:0;stroke-linecap:butt;stroke-linejoin:miter;stroke-dasharray:none;stroke-opacity:1"
         d="M 15.875,5.2916669 H 14.680377 L 8.0668085,19.050001 h 1.1936079 z"
         id="path5" />
      <path
         style="fill:#dcdcdc;fill-opacity:1;stroke:#000000;stroke-width:0;stroke-linecap:butt;stroke-linejoin:miter;stroke-dasharray:none;stroke-opacity:1"
         d="m 11.377084,5.2916669 3.393375,6.7957961 h 1.181022 L 12.562125,5.2916669 Z"
         id="path6" />
    </g>
  </g>
</svg>
